<svg clip-rule="evenodd" fill-rule="evenodd" stroke-linejoin="round" stroke-miterlimit="2" viewBox="0 0 922 400" xmlns="http://www.w3.org/2000/svg" xmlns:xlink="http://www.w3.org/1999/xlink"><clipPath id="a"><path clip-rule="evenodd" d="m0 0h2480.32v3507.87h-2480.32z"/></clipPath><g transform="matrix(.371459 0 0 .114016 .3 0)"><path d="m0 0h2480.32v3507.87h-2480.32z" fill="none"/><g clip-path="url(#a)" fill-rule="nonzero"><g transform="matrix(3.24755 0 0 10.5803 -1735.130328198 -3125.1782867)"><path d="m534.289 356.496c.875 6.125 3 11.375 6.375 15.875 3.25 4.625 7.5 8.125 12.625 10.5 5.125 2.5 10.875 3.75 17.25 3.75 6.625 0 12.375-1.125 17.25-3.375 4.875-2.125 8.625-5.375 11.25-9.5s4-8.875 4-14.25c0-6.625-2.125-12.25-6.25-16.625-4.25-4.375-11-8-20.125-10.625-5.625-1.625-9.75-2.875-12.375-4-2.75-1.125-4.625-2.125-5.625-3.25-1-1-1.5-2.375-1.5-4 0-2.5 1.125-4.625 3.375-6.25 2.125-1.625 4.875-2.5 8.125-2.5 3.875 0 7.125 1.125 9.875 3.375 2.625 2.375 4.375 5.5 5.25 9.625l17.25-3.5c-.875-5.25-2.875-9.875-5.875-13.875-3-3.875-6.75-7-11.375-9.25-4.625-2.125-9.625-3.25-15.125-3.25-5.625 0-10.75 1.125-15.25 3.25-4.5 2.25-8 5.375-10.5 9.25-2.625 4-3.875 8.5-3.875 13.375 0 6.375 2 11.375 6 15.25 3.875 3.875 10.5 7.25 19.625 10 5.625 1.625 9.875 3.125 12.75 4.25 2.75 1.25 4.75 2.5 5.875 3.875s1.625 3 1.625 5.125c0 3.125-1.25 5.625-3.75 7.375s-6 2.625-10.625 2.625c-5.125 0-9.375-1.5-12.75-4.5-3.375-2.875-5.375-7-6.25-12.25z"/><path d="m660.539 297.246-14.375 34-14.375-34h-18.125v87.5h17.375v-54l11.5 26.375h7.375l11.375-26.375v54h17.375v-87.5z"/><path d="m750.289 384.746h8.375l-30.625-87.5h-8.625l-30.75 87.5h8.375l8.75-25.625h35.75zm-42-32.875 15.375-45.125 15.375 45.125z"/><path d="m772.414 297.246v87.5h62.5v-7.5h-54.375v-80z"/><path d="m849.914 297.246v87.5h62.5v-7.5h-54.375v-80z"/></g><g transform="matrix(3.24755 0 0 10.5803 -1735.130328198 -1975.3959251)"><path d="m539.914 390.996h57.5v7.5h-57.5z"/><path d="m665.414 384.746h18.25l-29.625-87.5h-15.75l-29.625 87.5h18.25l5.875-19h26.75zm-27.625-34.875 8.375-26.875 8.375 26.875z"/><path d="m752.039 364.371c-.875-3.625-2.25-6.75-4.125-9.375-2-2.625-4.375-4.5-7.125-5.625 5.25-1.75 9.375-4.875 12.25-9.25s4.375-9.625 4.375-15.75c0-5.125-1.125-9.75-3.5-13.875s-5.625-7.375-9.75-9.75-8.625-3.5-13.625-3.5h-38.125v87.5h18.125v-33.75h4.375c5.5 0 9.625 1.25 12.25 3.75 2.625 2.625 4.5 7.125 5.625 13.5l3 16.5h20.875zm-41.5-30.25v-20h18.125c3.125 0 5.75.875 7.75 2.75 1.875 1.875 2.875 4.375 2.875 7.5 0 2.875-1 5.25-2.875 7-1.875 1.875-4.5 2.75-7.75 2.75z"/><path d="m792.039 384.746h18.25v-70.625h27.125v-16.875h-72.5v16.875h27.125z"/><path d="m851.164 384.746h55v-7.5h-23.375v-72.5h23.375v-7.5h-55v7.5h23.375v72.5h-23.375z"/><path d="m927.414 384.746h8.25v-38.75h41.875v-7.5h-41.875v-33.75h52.375v-7.5h-60.625z"/><path d="m1060.29 384.746h8.37l-30.62-87.5h-8.63l-30.746 87.5h8.376l8.75-25.625h35.75zm-42-32.875 15.37-45.125 15.38 45.125z"/><path d="m1079.91 340.996c0 9.125 1.38 17.125 4.13 24 2.62 6.875 6.5 12.25 11.5 16 4.87 3.75 10.75 5.625 17.37 5.625 7.88 0 14.38-2.5 19.75-7.625 5.25-5.125 8.75-12.25 10.38-21.375l-7.88-1.375c-1.37 7.375-3.87 13-7.75 16.875-3.87 4-8.62 6-14.5 6-5 0-9.37-1.5-13.12-4.625s-6.63-7.5-8.63-13.25c-2.12-5.75-3.12-12.5-3.12-20.25s1-14.5 3.12-20.25c2-5.75 4.88-10.125 8.63-13.25s8.12-4.625 13.12-4.625c5.63 0 10.38 1.875 14.25 5.5 3.75 3.75 6.38 9.125 7.75 16.125l7.75-1.375c-1.5-8.625-4.87-15.375-10.25-20.375-5.37-4.875-11.87-7.375-19.5-7.375-6.62 0-12.5 1.875-17.37 5.625-5 3.75-8.88 9-11.5 15.875-2.75 6.875-4.13 15-4.13 24.125z"/><path d="m1184.54 384.746h8.25v-80h29.62v-7.5h-67.5v7.5h29.63z"/><path d="m1234.29 355.621c1.12 10 4.75 17.625 10.62 23 5.88 5.375 13.88 8 23.75 8 5.88 0 11.13-1 15.5-3 4.38-2 7.88-4.875 10.25-8.625 2.38-3.625 3.63-8 3.63-12.875 0-4.75-.88-8.75-2.75-12.125-1.88-3.25-4.75-6.125-8.75-8.5-4.13-2.375-9.5-4.375-16.38-6.25-6.12-1.75-10.87-3.375-14.12-4.875-3.25-1.375-5.5-3-6.88-4.875-1.37-1.75-2-4-2-6.875 0-4.625 1.75-8.5 5.13-11.375 3.37-2.875 7.75-4.375 13.12-4.375 5.88 0 10.75 1.75 14.75 5.375 3.88 3.625 6.38 8.5 7.5 14.625l8-1.375c-1.37-7.875-4.75-14.25-10.25-19s-12.12-7.125-20-7.125c-5.12 0-9.62 1-13.62 2.875-4 2-7.13 4.75-9.38 8.25-2.25 3.625-3.37 7.625-3.37 12.125 0 4.125.87 7.5 2.62 10.25 1.75 2.875 4.63 5.25 8.63 7.375s9.62 4.125 16.87 6.125c5.63 1.625 10.13 3.25 13.5 5 3.25 1.75 5.63 3.75 7.13 6.125 1.37 2.375 2.12 5.25 2.12 8.625 0 5.25-1.87 9.375-5.62 12.375-3.88 3.125-9 4.625-15.63 4.625-7.87 0-13.87-2-18.25-6.125-4.37-4-7-10.125-8.12-18.375z"/></g><g transform="matrix(3.24755 0 0 10.5803 -2002.276843895 -2743.7796323)"><path d="m616.881 488.541v87.5h67.5v-16.875h-49.375v-70.625z"/><path d="m744.881 576.041h18.25l-29.625-87.5h-15.75l-29.625 87.5h18.25l5.875-19h26.75zm-27.625-34.875 8.375-26.875 8.375 26.875z"/><path d="m837.506 550.291c0-4.625-1.125-8.875-3.375-12.5s-5.25-6.5-9-8.5c2.875-1.875 5.125-4.375 6.75-7.5s2.375-6.5 2.375-9.875c0-4.125-1.125-8-3.5-11.625s-5.75-6.5-9.875-8.625-8.75-3.125-13.75-3.125h-35.25v87.5h37c5.375 0 10.375-1.125 14.75-3.375s7.75-5.375 10.25-9.375c2.375-3.875 3.625-8.25 3.625-13zm-47.5-44.875h16.125c3.25 0 5.75.75 7.5 2.125 1.625 1.5 2.5 3.5 2.5 6.125s-.875 4.75-2.5 6.25c-1.75 1.5-4.25 2.25-7.5 2.25h-16.125zm29.375 42.875c0 3.375-1 6-2.875 7.875-1.875 2-5 3-9.125 3h-17.375v-21.375h17.375c3.875 0 6.875.875 9 2.75 2 1.875 3 4.5 3 7.75z"/><path d="m859.99 590.246c5.233-.416 9.138-1.994 11.879-4.901 2.658-2.908 3.987-6.812 3.987-11.713v-12.71h-16.448v15.119h5.981c0 2.077-.332 3.572-1.079 4.486-.748.997-2.243 1.661-4.32 2.076zm-.166-42.781h15.617v-15.45h-15.617z"/></g></g></g></svg>