<?xml version="1.0" encoding="UTF-8" standalone="no"?>
<!DOCTYPE svg PUBLIC "-//W3C//DTD SVG 1.1//EN" "http://www.w3.org/Graphics/SVG/1.1/DTD/svg11.dtd">
<svg width="100%" height="100%" viewBox="0 0 922 400" version="1.1" xmlns="http://www.w3.org/2000/svg" xmlns:xlink="http://www.w3.org/1999/xlink" xml:space="preserve" xmlns:serif="http://www.serif.com/" style="fill-rule:evenodd;clip-rule:evenodd;stroke-linejoin:round;stroke-miterlimit:2;">
    <g transform="matrix(1,0,0,1,-20321,0)">
        <g id="smartlogofinal" transform="matrix(0.371459,0,0,0.114016,20321.3,0)">
            <rect x="0" y="0" width="2480.32" height="3507.87" style="fill:none;"/>
            <clipPath id="_clip1">
                <rect x="0" y="0" width="2480.32" height="3507.87"/>
            </clipPath>
            <g clip-path="url(#_clip1)">
                <g transform="matrix(3.24755,0,0,10.5803,-1760.26,-12553.4)">
                    <g>
                        <g transform="matrix(1,0,0,1,7.73804,891.111)">
                            <path d="M534.289,356.496C535.164,362.621 537.289,367.871 540.664,372.371C543.914,376.996 548.164,380.496 553.289,382.871C558.414,385.371 564.164,386.621 570.539,386.621C577.164,386.621 582.914,385.496 587.789,383.246C592.664,381.121 596.414,377.871 599.039,373.746C601.664,369.621 603.039,364.871 603.039,359.496C603.039,352.871 600.914,347.246 596.789,342.871C592.539,338.496 585.789,334.871 576.664,332.246C571.039,330.621 566.914,329.371 564.289,328.246C561.539,327.121 559.664,326.121 558.664,324.996C557.664,323.996 557.164,322.621 557.164,320.996C557.164,318.496 558.289,316.371 560.539,314.746C562.664,313.121 565.414,312.246 568.664,312.246C572.539,312.246 575.789,313.371 578.539,315.621C581.164,317.996 582.914,321.121 583.789,325.246L601.039,321.746C600.164,316.496 598.164,311.871 595.164,307.871C592.164,303.996 588.414,300.871 583.789,298.621C579.164,296.496 574.164,295.371 568.664,295.371C563.039,295.371 557.914,296.496 553.414,298.621C548.914,300.871 545.414,303.996 542.914,307.871C540.289,311.871 539.039,316.371 539.039,321.246C539.039,327.621 541.039,332.621 545.039,336.496C548.914,340.371 555.539,343.746 564.664,346.496C570.289,348.121 574.539,349.621 577.414,350.746C580.164,351.996 582.164,353.246 583.289,354.621C584.414,355.996 584.914,357.621 584.914,359.746C584.914,362.871 583.664,365.371 581.164,367.121C578.664,368.871 575.164,369.746 570.539,369.746C565.414,369.746 561.164,368.246 557.789,365.246C554.414,362.371 552.414,358.246 551.539,352.996L534.289,356.496Z" style="fill-rule:nonzero;"/>
                            <path d="M660.539,297.246L646.164,331.246L631.789,297.246L613.664,297.246L613.664,384.746L631.039,384.746L631.039,330.746L642.539,357.121L649.914,357.121L661.289,330.746L661.289,384.746L678.664,384.746L678.664,297.246L660.539,297.246Z" style="fill-rule:nonzero;"/>
                            <path d="M750.289,384.746L758.664,384.746L728.039,297.246L719.414,297.246L688.664,384.746L697.039,384.746L705.789,359.121L741.539,359.121L750.289,384.746ZM708.289,351.871L723.664,306.746L739.039,351.871L708.289,351.871Z" style="fill-rule:nonzero;"/>
                            <path d="M772.414,297.246L772.414,384.746L834.914,384.746L834.914,377.246L780.539,377.246L780.539,297.246L772.414,297.246Z" style="fill-rule:nonzero;"/>
                            <path d="M849.914,297.246L849.914,384.746L912.414,384.746L912.414,377.246L858.039,377.246L858.039,297.246L849.914,297.246Z" style="fill-rule:nonzero;"/>
                        </g>
                        <g transform="matrix(1,0,0,1,7.73804,999.783)">
                            <rect x="539.914" y="390.996" width="57.5" height="7.5" style="fill-rule:nonzero;"/>
                            <path d="M665.414,384.746L683.664,384.746L654.039,297.246L638.289,297.246L608.664,384.746L626.914,384.746L632.789,365.746L659.539,365.746L665.414,384.746ZM637.789,349.871L646.164,322.996L654.539,349.871L637.789,349.871Z" style="fill-rule:nonzero;"/>
                            <path d="M752.039,364.371C751.164,360.746 749.789,357.621 747.914,354.996C745.914,352.371 743.539,350.496 740.789,349.371C746.039,347.621 750.164,344.496 753.039,340.121C755.914,335.746 757.414,330.496 757.414,324.371C757.414,319.246 756.289,314.621 753.914,310.496C751.539,306.371 748.289,303.121 744.164,300.746C740.039,298.371 735.539,297.246 730.539,297.246L692.414,297.246L692.414,384.746L710.539,384.746L710.539,350.996L714.914,350.996C720.414,350.996 724.539,352.246 727.164,354.746C729.789,357.371 731.664,361.871 732.789,368.246L735.789,384.746L756.664,384.746L752.039,364.371ZM710.539,334.121L710.539,314.121L728.664,314.121C731.789,314.121 734.414,314.996 736.414,316.871C738.289,318.746 739.289,321.246 739.289,324.371C739.289,327.246 738.289,329.621 736.414,331.371C734.539,333.246 731.914,334.121 728.664,334.121L710.539,334.121Z" style="fill-rule:nonzero;"/>
                            <path d="M792.039,384.746L810.289,384.746L810.289,314.121L837.414,314.121L837.414,297.246L764.914,297.246L764.914,314.121L792.039,314.121L792.039,384.746Z" style="fill-rule:nonzero;"/>
                            <path d="M851.164,384.746L906.164,384.746L906.164,377.246L882.789,377.246L882.789,304.746L906.164,304.746L906.164,297.246L851.164,297.246L851.164,304.746L874.539,304.746L874.539,377.246L851.164,377.246L851.164,384.746Z" style="fill-rule:nonzero;"/>
                            <path d="M927.414,384.746L935.664,384.746L935.664,345.996L977.539,345.996L977.539,338.496L935.664,338.496L935.664,304.746L988.039,304.746L988.039,297.246L927.414,297.246L927.414,384.746Z" style="fill-rule:nonzero;"/>
                            <path d="M1060.29,384.746L1068.66,384.746L1038.04,297.246L1029.41,297.246L998.664,384.746L1007.04,384.746L1015.79,359.121L1051.54,359.121L1060.29,384.746ZM1018.29,351.871L1033.66,306.746L1049.04,351.871L1018.29,351.871Z" style="fill-rule:nonzero;"/>
                            <path d="M1079.91,340.996C1079.91,350.121 1081.29,358.121 1084.04,364.996C1086.66,371.871 1090.54,377.246 1095.54,380.996C1100.41,384.746 1106.29,386.621 1112.91,386.621C1120.79,386.621 1127.29,384.121 1132.66,378.996C1137.91,373.871 1141.41,366.746 1143.04,357.621L1135.16,356.246C1133.79,363.621 1131.29,369.246 1127.41,373.121C1123.54,377.121 1118.79,379.121 1112.91,379.121C1107.91,379.121 1103.54,377.621 1099.79,374.496C1096.04,371.371 1093.16,366.996 1091.16,361.246C1089.04,355.496 1088.04,348.746 1088.04,340.996C1088.04,333.246 1089.04,326.496 1091.16,320.746C1093.16,314.996 1096.04,310.621 1099.79,307.496C1103.54,304.371 1107.91,302.871 1112.91,302.871C1118.54,302.871 1123.29,304.746 1127.16,308.371C1130.91,312.121 1133.54,317.496 1134.91,324.496L1142.66,323.121C1141.16,314.496 1137.79,307.746 1132.41,302.746C1127.04,297.871 1120.54,295.371 1112.91,295.371C1106.29,295.371 1100.41,297.246 1095.54,300.996C1090.54,304.746 1086.66,309.996 1084.04,316.871C1081.29,323.746 1079.91,331.871 1079.91,340.996Z" style="fill-rule:nonzero;"/>
                            <path d="M1184.54,384.746L1192.79,384.746L1192.79,304.746L1222.41,304.746L1222.41,297.246L1154.91,297.246L1154.91,304.746L1184.54,304.746L1184.54,384.746Z" style="fill-rule:nonzero;"/>
                            <path d="M1234.29,355.621C1235.41,365.621 1239.04,373.246 1244.91,378.621C1250.79,383.996 1258.79,386.621 1268.66,386.621C1274.54,386.621 1279.79,385.621 1284.16,383.621C1288.54,381.621 1292.04,378.746 1294.41,374.996C1296.79,371.371 1298.04,366.996 1298.04,362.121C1298.04,357.371 1297.16,353.371 1295.29,349.996C1293.41,346.746 1290.54,343.871 1286.54,341.496C1282.41,339.121 1277.04,337.121 1270.16,335.246C1264.04,333.496 1259.29,331.871 1256.04,330.371C1252.79,328.996 1250.54,327.371 1249.16,325.496C1247.79,323.746 1247.16,321.496 1247.16,318.621C1247.16,313.996 1248.91,310.121 1252.29,307.246C1255.66,304.371 1260.04,302.871 1265.41,302.871C1271.29,302.871 1276.16,304.621 1280.16,308.246C1284.04,311.871 1286.54,316.746 1287.66,322.871L1295.66,321.496C1294.29,313.621 1290.91,307.246 1285.41,302.496C1279.91,297.746 1273.29,295.371 1265.41,295.371C1260.29,295.371 1255.79,296.371 1251.79,298.246C1247.79,300.246 1244.66,302.996 1242.41,306.496C1240.16,310.121 1239.04,314.121 1239.04,318.621C1239.04,322.746 1239.91,326.121 1241.66,328.871C1243.41,331.746 1246.29,334.121 1250.29,336.246C1254.29,338.371 1259.91,340.371 1267.16,342.371C1272.79,343.996 1277.29,345.621 1280.66,347.371C1283.91,349.121 1286.29,351.121 1287.79,353.496C1289.16,355.871 1289.91,358.746 1289.91,362.121C1289.91,367.371 1288.04,371.496 1284.29,374.496C1280.41,377.621 1275.29,379.121 1268.66,379.121C1260.79,379.121 1254.79,377.121 1250.41,372.996C1246.04,368.996 1243.41,362.871 1242.29,354.621L1234.29,355.621Z" style="fill-rule:nonzero;"/>
                        </g>
                        <g transform="matrix(1,0,0,1,-74.5229,927.159)">
                            <path d="M616.881,488.541L616.881,576.041L684.381,576.041L684.381,559.166L635.006,559.166L635.006,488.541L616.881,488.541Z" style="fill-rule:nonzero;"/>
                            <path d="M744.881,576.041L763.131,576.041L733.506,488.541L717.756,488.541L688.131,576.041L706.381,576.041L712.256,557.041L739.006,557.041L744.881,576.041ZM717.256,541.166L725.631,514.291L734.006,541.166L717.256,541.166Z" style="fill-rule:nonzero;"/>
                            <path d="M837.506,550.291C837.506,545.666 836.381,541.416 834.131,537.791C831.881,534.166 828.881,531.291 825.131,529.291C828.006,527.416 830.256,524.916 831.881,521.791C833.506,518.666 834.256,515.291 834.256,511.916C834.256,507.791 833.131,503.916 830.756,500.291C828.381,496.666 825.006,493.791 820.881,491.666C816.756,489.541 812.131,488.541 807.131,488.541L771.881,488.541L771.881,576.041L808.881,576.041C814.256,576.041 819.256,574.916 823.631,572.666C828.006,570.416 831.381,567.291 833.881,563.291C836.256,559.416 837.506,555.041 837.506,550.291ZM790.006,505.416L806.131,505.416C809.381,505.416 811.881,506.166 813.631,507.541C815.256,509.041 816.131,511.041 816.131,513.666C816.131,516.291 815.256,518.416 813.631,519.916C811.881,521.416 809.381,522.166 806.131,522.166L790.006,522.166L790.006,505.416ZM819.381,548.291C819.381,551.666 818.381,554.291 816.506,556.166C814.631,558.166 811.506,559.166 807.381,559.166L790.006,559.166L790.006,537.791L807.381,537.791C811.256,537.791 814.256,538.666 816.381,540.541C818.381,542.416 819.381,545.041 819.381,548.291Z" style="fill-rule:nonzero;"/>
                            <path d="M859.99,590.246C865.223,589.83 869.128,588.252 871.869,585.345C874.527,582.437 875.856,578.533 875.856,573.632L875.856,560.922L859.408,560.922L859.408,576.041L865.389,576.041C865.389,578.118 865.057,579.613 864.31,580.527C863.562,581.524 862.067,582.188 859.99,582.603L859.99,590.246ZM859.824,547.465L875.441,547.465L875.441,532.015L859.824,532.015L859.824,547.465Z" style="fill-rule:nonzero;"/>
                        </g>
                    </g>
                </g>
            </g>
        </g>
    </g>
</svg>
